<svg width="100" height="100" viewBox="0 0 100 100" fill="none" xmlns="http://www.w3.org/2000/svg">
<g clip-path="url(#clip0_1429_2)">
<rect width="100" height="100" fill="white"/>
<path d="M47.48 74.08C45.2187 74.08 44.088 72.9707 44.088 70.752C44.088 66.1013 44.7707 62.368 46.136 59.552C47.5013 56.736 49.1653 54.496 51.128 52.832C53.1333 51.168 55.096 49.7387 57.016 48.544C58.8933 47.3067 60.5573 46.0693 62.008 44.832C63.5013 43.552 64.6533 41.9307 65.464 39.968C66.3173 38.0053 66.744 35.3387 66.744 31.968C66.744 26.3787 65.656 22.496 63.48 20.32C61.304 18.1013 57.4213 16.992 51.832 16.992H43.256C37.6667 16.992 33.7627 18.1013 31.544 20.32C29.368 22.5387 28.28 26.4213 28.28 31.968C28.28 34.1867 27.1707 35.296 24.952 35.296C22.6907 35.296 21.56 34.1867 21.56 31.968C21.56 24.544 23.3093 19.0827 26.808 15.584C30.3493 12.0427 35.832 10.272 43.256 10.272H51.832C59.2987 10.272 64.76 12.0213 68.216 15.52C71.7147 19.0187 73.464 24.5013 73.464 31.968C73.464 36.6187 72.7813 40.352 71.416 43.168C70.0933 45.984 68.4293 48.224 66.424 49.888C64.4187 51.5093 62.4773 52.9387 60.6 54.176C58.7227 55.4133 57.0373 56.6507 55.544 57.888C54.0507 59.1253 52.8773 60.7467 52.024 62.752C51.2133 64.7147 50.808 67.3813 50.808 70.752C50.808 72.9707 49.6987 74.08 47.48 74.08ZM46.392 92C43.96 92 42.744 90.7413 42.744 88.224V85.792C42.744 83.36 43.96 82.144 46.392 82.144H48.824C51.2133 82.144 52.408 83.36 52.408 85.792V88.224C52.408 90.7413 51.2133 92 48.824 92H46.392Z" fill="black"/>
</g>
<defs>
<clipPath id="clip0_1429_2">
<rect width="100" height="100" fill="white"/>
</clipPath>
</defs>
</svg>
