<svg width="50" height="80" viewBox="0 0 50 80" fill="none" xmlns="http://www.w3.org/2000/svg">
<path d="M24.9692 62.4589C22.7908 62.4589 21.7016 61.373 21.7016 59.2013C21.7016 54.6489 22.3593 50.9945 23.6745 48.2381C24.9897 45.4816 26.5927 43.289 28.4834 41.6601C30.4151 40.0313 32.3058 38.6322 34.1554 37.4628C35.9638 36.2517 37.5668 35.0404 38.9642 33.8293C40.4028 32.5764 41.5125 30.9893 42.2935 29.0681C43.1155 27.1469 43.5265 24.5367 43.5265 21.2373C43.5265 15.7662 42.4784 11.9655 40.3822 9.83555C38.2861 7.66376 34.5458 6.57792 29.1615 6.57792H20.9001C15.5159 6.57792 11.7551 7.66376 9.61776 9.83555C7.52158 12.0073 6.47349 15.8079 6.47349 21.2373C6.47349 23.4091 5.40488 24.4949 3.26757 24.4949C1.08922 24.4949 0 23.4091 0 21.2373C0 13.9702 1.68513 8.62441 5.05549 5.19969C8.46688 1.73326 13.7485 0 20.9001 0H29.1615C36.3543 0 41.6153 1.71231 44.9445 5.13704C48.3149 8.56177 50 13.9284 50 21.2373C50 25.7896 49.3423 29.444 48.0271 32.2005C46.753 34.9569 45.15 37.1496 43.2183 38.7784C41.2865 40.3654 39.4163 41.7646 37.6079 42.9757C35.7995 44.1869 34.1759 45.3981 32.7374 46.6092C31.2988 47.8204 30.1685 49.4075 29.3465 51.3704C28.5655 53.2916 28.1751 55.9018 28.1751 59.2013C28.1751 61.373 27.1065 62.4589 24.9692 62.4589ZM23.9211 80C21.5783 80 20.4069 78.7679 20.4069 76.3038V73.9233C20.4069 71.5427 21.5783 70.3524 23.9211 70.3524H26.2639C28.5655 70.3524 29.7164 71.5427 29.7164 73.9233V76.3038C29.7164 78.7679 28.5655 80 26.2639 80H23.9211Z" fill="black"/>
</svg>
