<svg width="573" height="524" viewBox="0 0 573 524" fill="none" xmlns="http://www.w3.org/2000/svg">
<rect x="7.5" y="126.5" width="558" height="390" rx="25.5" stroke="black" stroke-width="15"/>
<rect x="49.5" y="169.5" width="438" height="305" rx="25.5" stroke="black" stroke-width="15"/>
<path d="M512.537 399.791C513.821 398.292 515.489 397.17 517.363 396.546L520.442 395.519C521.478 395.174 522.547 394.935 523.633 394.808L528.772 394.203C529.922 394.068 531.082 394.058 532.234 394.173L535.501 394.5C538.755 394.795 541.417 397.216 542.018 400.428L542.337 402.125C542.446 402.708 542.5 403.299 542.5 403.891L542.5 410L542.286 411.717C542.098 413.228 541.654 414.695 540.973 416.057C540.659 416.684 540.297 417.286 539.889 417.857L538.431 419.898C538.145 420.298 537.826 420.674 537.478 421.023C536.191 422.31 534.542 423.174 532.751 423.5L531.233 423.776C530.414 423.925 529.582 424 528.749 424L521.865 424C519.982 424 518.124 423.561 516.439 422.719C514.201 421.601 512.364 419.818 511.178 417.616L511.052 417.382C510.034 415.49 509.5 413.376 509.5 411.228L509.5 408.418C509.5 406.494 509.904 404.592 510.686 402.834L510.855 402.453C511.284 401.489 511.85 400.593 512.537 399.791Z" fill="black"/>
<path d="M512.537 313.792C513.821 312.293 515.489 311.171 517.363 310.547L520.442 309.52C521.478 309.175 522.547 308.936 523.633 308.809L528.772 308.204C529.922 308.069 531.082 308.059 532.234 308.174L535.501 308.5C538.755 308.796 541.417 311.217 542.018 314.429L542.337 316.126C542.446 316.709 542.5 317.3 542.5 317.892L542.5 324.001L542.286 325.718C542.098 327.229 541.654 328.696 540.973 330.058C540.659 330.685 540.297 331.287 539.889 331.858L538.431 333.899C538.145 334.299 537.826 334.675 537.478 335.024C536.191 336.311 534.542 337.175 532.751 337.501L531.233 337.777C530.414 337.926 529.582 338 528.749 338L521.865 338C519.982 338 518.124 337.562 516.439 336.72C514.201 335.602 512.364 333.819 511.178 331.617L511.052 331.383C510.034 329.491 509.5 327.377 509.5 325.229L509.5 322.419C509.5 320.495 509.904 318.593 510.686 316.835L510.855 316.454C511.284 315.49 511.85 314.594 512.537 313.792Z" fill="black"/>
<path d="M512.537 227.792C513.821 226.293 515.489 225.171 517.363 224.547L520.442 223.52C521.478 223.175 522.547 222.936 523.633 222.809L528.772 222.204C529.922 222.069 531.082 222.059 532.234 222.174L535.501 222.5C538.755 222.796 541.417 225.217 542.018 228.429L542.337 230.126C542.446 230.709 542.5 231.3 542.5 231.892L542.5 238.001L542.286 239.718C542.098 241.229 541.654 242.696 540.973 244.058C540.659 244.685 540.297 245.287 539.889 245.858L538.431 247.899C538.145 248.299 537.826 248.675 537.478 249.024C536.191 250.311 534.542 251.175 532.751 251.501L531.233 251.777C530.414 251.926 529.582 252 528.749 252L521.865 252C519.982 252 518.124 251.562 516.439 250.72C514.201 249.602 512.364 247.819 511.178 245.617L511.052 245.383C510.034 243.491 509.5 241.377 509.5 239.229L509.5 236.419C509.5 234.495 509.904 232.593 510.686 230.835L510.855 230.454C511.284 229.49 511.85 228.594 512.537 227.792Z" fill="black"/>
<mask id="path-6-outside-1_1737_28" maskUnits="userSpaceOnUse" x="115" y="205" width="315" height="108" fill="black">
<rect fill="white" x="115" y="205" width="315" height="108"/>
<path d="M131.491 206.971V296.985H185.471V312H116.477V206.971H131.491ZM218.503 206.971V312H203.488V206.971H218.503ZM277.023 312L236.521 206.971H252.634L285.3 293.396L318.039 206.971H334.079L293.576 312H277.023ZM352.023 206.971H428.562V221.985H367.038V252.015H419.553V267.029H367.038V296.985H428.562V312H352.023V206.971Z"/>
</mask>
<path d="M131.491 206.971V296.985H185.471V312H116.477V206.971H131.491ZM218.503 206.971V312H203.488V206.971H218.503ZM277.023 312L236.521 206.971H252.634L285.3 293.396L318.039 206.971H334.079L293.576 312H277.023ZM352.023 206.971H428.562V221.985H367.038V252.015H419.553V267.029H367.038V296.985H428.562V312H352.023V206.971Z" fill="#0A0A0A"/>
<path d="M131.491 206.971V296.985H185.471V312H116.477V206.971H131.491ZM218.503 206.971V312H203.488V206.971H218.503ZM277.023 312L236.521 206.971H252.634L285.3 293.396L318.039 206.971H334.079L293.576 312H277.023ZM352.023 206.971H428.562V221.985H367.038V252.015H419.553V267.029H367.038V296.985H428.562V312H352.023V206.971Z" fill="black"/>
<path d="M131.491 206.971H132.491V205.971H131.491V206.971ZM131.491 296.985H130.491V297.985H131.491V296.985ZM185.471 296.985H186.471V295.985H185.471V296.985ZM185.471 312V313H186.471V312H185.471ZM116.477 312H115.477V313H116.477V312ZM116.477 206.971V205.971H115.477V206.971H116.477ZM130.491 206.971V296.985H132.491V206.971H130.491ZM131.491 297.985H185.471V295.985H131.491V297.985ZM184.471 296.985V312H186.471V296.985H184.471ZM185.471 311H116.477V313H185.471V311ZM117.477 312V206.971H115.477V312H117.477ZM116.477 207.971H131.491V205.971H116.477V207.971ZM218.503 206.971H219.503V205.971H218.503V206.971ZM218.503 312V313H219.503V312H218.503ZM203.488 312H202.488V313H203.488V312ZM203.488 206.971V205.971H202.488V206.971H203.488ZM217.503 206.971V312H219.503V206.971H217.503ZM218.503 311H203.488V313H218.503V311ZM204.488 312V206.971H202.488V312H204.488ZM203.488 207.971H218.503V205.971H203.488V207.971ZM277.023 312L276.09 312.36L276.337 313H277.023V312ZM236.521 206.971V205.971H235.063L235.587 207.331L236.521 206.971ZM252.634 206.971L253.569 206.617L253.325 205.971H252.634V206.971ZM285.3 293.396L284.364 293.75L285.299 296.222L286.235 293.751L285.3 293.396ZM318.039 206.971V205.971H317.349L317.104 206.616L318.039 206.971ZM334.079 206.971L335.012 207.331L335.537 205.971H334.079V206.971ZM293.576 312V313H294.262L294.509 312.36L293.576 312ZM277.956 311.64L237.454 206.611L235.587 207.331L276.09 312.36L277.956 311.64ZM236.521 207.971H252.634V205.971H236.521V207.971ZM251.698 207.324L284.364 293.75L286.235 293.043L253.569 206.617L251.698 207.324ZM286.235 293.751L318.974 207.325L317.104 206.616L284.365 293.042L286.235 293.751ZM318.039 207.971H334.079V205.971H318.039V207.971ZM333.146 206.611L292.643 311.64L294.509 312.36L335.012 207.331L333.146 206.611ZM293.576 311H277.023V313H293.576V311ZM352.023 206.971V205.971H351.023V206.971H352.023ZM428.562 206.971H429.562V205.971H428.562V206.971ZM428.562 221.985V222.985H429.562V221.985H428.562ZM367.038 221.985V220.985H366.038V221.985H367.038ZM367.038 252.015H366.038V253.015H367.038V252.015ZM419.553 252.015H420.553V251.015H419.553V252.015ZM419.553 267.029V268.029H420.553V267.029H419.553ZM367.038 267.029V266.029H366.038V267.029H367.038ZM367.038 296.985H366.038V297.985H367.038V296.985ZM428.562 296.985H429.562V295.985H428.562V296.985ZM428.562 312V313H429.562V312H428.562ZM352.023 312H351.023V313H352.023V312ZM352.023 207.971H428.562V205.971H352.023V207.971ZM427.562 206.971V221.985H429.562V206.971H427.562ZM428.562 220.985H367.038V222.985H428.562V220.985ZM366.038 221.985V252.015H368.038V221.985H366.038ZM367.038 253.015H419.553V251.015H367.038V253.015ZM418.553 252.015V267.029H420.553V252.015H418.553ZM419.553 266.029H367.038V268.029H419.553V266.029ZM366.038 267.029V296.985H368.038V267.029H366.038ZM367.038 297.985H428.562V295.985H367.038V297.985ZM427.562 296.985V312H429.562V296.985H427.562ZM428.562 311H352.023V313H428.562V311ZM353.023 312V206.971H351.023V312H353.023Z" fill="black" mask="url(#path-6-outside-1_1737_28)"/>
<mask id="path-8-outside-2_1737_28" maskUnits="userSpaceOnUse" x="113" y="342" width="316" height="92" fill="black">
<rect fill="white" x="113" y="342" width="316" height="92"/>
<path d="M127.312 433H114.5V343.375H127.312L181.188 412.875V343.375H194V433H181.188L127.312 363.5V433ZM293.812 420.188C293.812 421.938 293.479 423.604 292.812 425.188C292.146 426.729 291.229 428.083 290.062 429.25C288.896 430.417 287.521 431.333 285.938 432C284.396 432.667 282.75 433 281 433H229.812C228.062 433 226.396 432.667 224.812 432C223.271 431.333 221.917 430.417 220.75 429.25C219.583 428.083 218.667 426.729 218 425.188C217.333 423.604 217 421.938 217 420.188V356.188C217 354.438 217.333 352.792 218 351.25C218.667 349.667 219.583 348.312 220.75 347.188C221.917 346.021 223.271 345.104 224.812 344.438C226.396 343.729 228.062 343.375 229.812 343.375H281C282.75 343.375 284.396 343.729 285.938 344.438C287.521 345.104 288.896 346.021 290.062 347.188C291.229 348.312 292.146 349.667 292.812 351.25C293.479 352.792 293.812 354.438 293.812 356.188V420.188ZM229.812 356.188V420.188H281V356.188H229.812ZM334.812 433L309.188 343.375H322L341.875 414.688L361.688 343.375H374.5L394.312 414.688L414.188 343.375H427L401.375 433H387.312L368.125 365.812L348.875 433H334.812Z"/>
</mask>
<path d="M127.312 433H114.5V343.375H127.312L181.188 412.875V343.375H194V433H181.188L127.312 363.5V433ZM293.812 420.188C293.812 421.938 293.479 423.604 292.812 425.188C292.146 426.729 291.229 428.083 290.062 429.25C288.896 430.417 287.521 431.333 285.938 432C284.396 432.667 282.75 433 281 433H229.812C228.062 433 226.396 432.667 224.812 432C223.271 431.333 221.917 430.417 220.75 429.25C219.583 428.083 218.667 426.729 218 425.188C217.333 423.604 217 421.938 217 420.188V356.188C217 354.438 217.333 352.792 218 351.25C218.667 349.667 219.583 348.312 220.75 347.188C221.917 346.021 223.271 345.104 224.812 344.438C226.396 343.729 228.062 343.375 229.812 343.375H281C282.75 343.375 284.396 343.729 285.938 344.438C287.521 345.104 288.896 346.021 290.062 347.188C291.229 348.312 292.146 349.667 292.812 351.25C293.479 352.792 293.812 354.438 293.812 356.188V420.188ZM229.812 356.188V420.188H281V356.188H229.812ZM334.812 433L309.188 343.375H322L341.875 414.688L361.688 343.375H374.5L394.312 414.688L414.188 343.375H427L401.375 433H387.312L368.125 365.812L348.875 433H334.812Z" fill="#0A0A0A"/>
<path d="M127.312 433H114.5V343.375H127.312L181.188 412.875V343.375H194V433H181.188L127.312 363.5V433ZM293.812 420.188C293.812 421.938 293.479 423.604 292.812 425.188C292.146 426.729 291.229 428.083 290.062 429.25C288.896 430.417 287.521 431.333 285.938 432C284.396 432.667 282.75 433 281 433H229.812C228.062 433 226.396 432.667 224.812 432C223.271 431.333 221.917 430.417 220.75 429.25C219.583 428.083 218.667 426.729 218 425.188C217.333 423.604 217 421.938 217 420.188V356.188C217 354.438 217.333 352.792 218 351.25C218.667 349.667 219.583 348.312 220.75 347.188C221.917 346.021 223.271 345.104 224.812 344.438C226.396 343.729 228.062 343.375 229.812 343.375H281C282.75 343.375 284.396 343.729 285.938 344.438C287.521 345.104 288.896 346.021 290.062 347.188C291.229 348.312 292.146 349.667 292.812 351.25C293.479 352.792 293.812 354.438 293.812 356.188V420.188ZM229.812 356.188V420.188H281V356.188H229.812ZM334.812 433L309.188 343.375H322L341.875 414.688L361.688 343.375H374.5L394.312 414.688L414.188 343.375H427L401.375 433H387.312L368.125 365.812L348.875 433H334.812Z" fill="black"/>
<path d="M127.312 433V434H128.312V433H127.312ZM114.5 433H113.5V434H114.5V433ZM114.5 343.375V342.375H113.5V343.375H114.5ZM127.312 343.375L128.103 342.762L127.803 342.375H127.312V343.375ZM181.188 412.875L180.397 413.488L182.188 415.797V412.875H181.188ZM181.188 343.375V342.375H180.188V343.375H181.188ZM194 343.375H195V342.375H194V343.375ZM194 433V434H195V433H194ZM181.188 433L180.397 433.613L180.697 434H181.188V433ZM127.312 363.5L128.103 362.887L126.312 360.578V363.5H127.312ZM127.312 432H114.5V434H127.312V432ZM115.5 433V343.375H113.5V433H115.5ZM114.5 344.375H127.312V342.375H114.5V344.375ZM126.522 343.988L180.397 413.488L181.978 412.262L128.103 342.762L126.522 343.988ZM182.188 412.875V343.375H180.188V412.875H182.188ZM181.188 344.375H194V342.375H181.188V344.375ZM193 343.375V433H195V343.375H193ZM194 432H181.188V434H194V432ZM181.978 432.387L128.103 362.887L126.522 364.113L180.397 433.613L181.978 432.387ZM126.312 363.5V433H128.312V363.5H126.312ZM292.812 425.188L293.73 425.584L293.734 425.576L292.812 425.188ZM285.938 432L285.549 431.078L285.541 431.082L285.938 432ZM224.812 432L224.416 432.918L224.424 432.922L224.812 432ZM220.75 429.25L220.043 429.957L220.75 429.25ZM218 425.188L217.078 425.576L217.082 425.584L218 425.188ZM218 351.25L218.918 351.647L218.922 351.638L218 351.25ZM220.75 347.188L221.444 347.907L221.451 347.901L221.457 347.895L220.75 347.188ZM224.812 344.438L225.209 345.355L225.221 345.35L224.812 344.438ZM285.938 344.438L285.52 345.346L285.535 345.353L285.549 345.359L285.938 344.438ZM290.062 347.188L289.355 347.895L289.362 347.901L289.368 347.907L290.062 347.188ZM292.812 351.25L291.891 351.638L291.895 351.647L292.812 351.25ZM229.812 356.188V355.188H228.812V356.188H229.812ZM229.812 420.188H228.812V421.188H229.812V420.188ZM281 420.188V421.188H282V420.188H281ZM281 356.188H282V355.188H281V356.188ZM292.812 420.188C292.812 421.807 292.505 423.341 291.891 424.799L293.734 425.576C294.454 423.867 294.812 422.068 294.812 420.188H292.812ZM291.895 424.791C291.277 426.219 290.431 427.467 289.355 428.543L290.77 429.957C292.027 428.7 293.015 427.24 293.73 425.584L291.895 424.791ZM289.355 428.543C288.284 429.614 287.019 430.46 285.549 431.078L286.326 432.922C288.023 432.207 289.508 431.219 290.77 429.957L289.355 428.543ZM285.541 431.082C284.129 431.692 282.619 432 281 432V434C282.881 434 284.662 433.641 286.334 432.918L285.541 431.082ZM281 432H229.812V434H281V432ZM229.812 432C228.193 432 226.659 431.692 225.201 431.078L224.424 432.922C226.133 433.641 227.932 434 229.812 434V432ZM225.209 431.082C223.781 430.465 222.533 429.619 221.457 428.543L220.043 429.957C221.3 431.215 222.76 432.202 224.416 432.918L225.209 431.082ZM221.457 428.543C220.381 427.467 219.535 426.219 218.918 424.791L217.082 425.584C217.798 427.24 218.785 428.7 220.043 429.957L221.457 428.543ZM218.922 424.799C218.308 423.341 218 421.807 218 420.188H216C216 422.068 216.359 423.867 217.078 425.576L218.922 424.799ZM218 420.188V356.188H216V420.188H218ZM218 356.188C218 354.568 218.308 353.058 218.918 351.647L217.082 350.853C216.359 352.525 216 354.307 216 356.188H218ZM218.922 351.638C219.539 350.172 220.381 348.933 221.444 347.907L220.056 346.468C218.786 347.692 217.794 349.161 217.078 350.862L218.922 351.638ZM221.457 347.895C222.533 346.819 223.781 345.973 225.209 345.355L224.416 343.52C222.76 344.235 221.3 345.223 220.043 346.48L221.457 347.895ZM225.221 345.35C226.675 344.7 228.202 344.375 229.812 344.375V342.375C227.923 342.375 226.117 342.758 224.404 343.525L225.221 345.35ZM229.812 344.375H281V342.375H229.812V344.375ZM281 344.375C282.611 344.375 284.113 344.7 285.52 345.346L286.355 343.529C284.678 342.758 282.889 342.375 281 342.375V344.375ZM285.549 345.359C287.019 345.978 288.284 346.823 289.355 347.895L290.77 346.48C289.508 345.218 288.023 344.231 286.326 343.516L285.549 345.359ZM289.368 347.907C290.432 348.933 291.274 350.172 291.891 351.638L293.734 350.862C293.018 349.161 292.027 347.692 290.757 346.468L289.368 347.907ZM291.895 351.647C292.505 353.058 292.812 354.568 292.812 356.188H294.812C294.812 354.307 294.453 352.525 293.73 350.853L291.895 351.647ZM292.812 356.188V420.188H294.812V356.188H292.812ZM228.812 356.188V420.188H230.812V356.188H228.812ZM229.812 421.188H281V419.188H229.812V421.188ZM282 420.188V356.188H280V420.188H282ZM281 355.188H229.812V357.188H281V355.188ZM334.812 433L333.851 433.275L334.058 434H334.812V433ZM309.188 343.375V342.375H307.862L308.226 343.65L309.188 343.375ZM322 343.375L322.963 343.107L322.759 342.375H322V343.375ZM341.875 414.688L340.912 414.956L341.877 418.418L342.839 414.955L341.875 414.688ZM361.688 343.375V342.375H360.927L360.724 343.107L361.688 343.375ZM374.5 343.375L375.464 343.107L375.26 342.375H374.5V343.375ZM394.312 414.688L393.349 414.955L394.311 418.418L395.276 414.956L394.312 414.688ZM414.188 343.375V342.375H413.428L413.224 343.107L414.188 343.375ZM427 343.375L427.961 343.65L428.326 342.375H427V343.375ZM401.375 433V434H402.129L402.336 433.275L401.375 433ZM387.312 433L386.351 433.275L386.558 434H387.312V433ZM368.125 365.812L369.087 365.538L368.127 362.176L367.164 365.537L368.125 365.812ZM348.875 433V434H349.629L349.836 433.275L348.875 433ZM335.774 432.725L310.149 343.1L308.226 343.65L333.851 433.275L335.774 432.725ZM309.188 344.375H322V342.375H309.188V344.375ZM321.037 343.643L340.912 414.956L342.838 414.419L322.963 343.107L321.037 343.643ZM342.839 414.955L362.651 343.643L360.724 343.107L340.911 414.42L342.839 414.955ZM361.688 344.375H374.5V342.375H361.688V344.375ZM373.536 343.643L393.349 414.955L395.276 414.42L375.464 343.107L373.536 343.643ZM395.276 414.956L415.151 343.643L413.224 343.107L393.349 414.419L395.276 414.956ZM414.188 344.375H427V342.375H414.188V344.375ZM426.039 343.1L400.414 432.725L402.336 433.275L427.961 343.65L426.039 343.1ZM401.375 432H387.312V434H401.375V432ZM388.274 432.725L369.087 365.538L367.163 366.087L386.351 433.275L388.274 432.725ZM367.164 365.537L347.914 432.725L349.836 433.275L369.086 366.088L367.164 365.537ZM348.875 432H334.812V434H348.875V432Z" fill="black" mask="url(#path-8-outside-2_1737_28)"/>
<path d="M267 122L233 62" stroke="black" stroke-width="17" stroke-linecap="round"/>
<path d="M304 123L370 9" stroke="black" stroke-width="17" stroke-linecap="round"/>
</svg>
